<svg xmlns="http://www.w3.org/2000/svg" viewBox="0 0 64 64" role="img" aria-label="WiGLE Visualizer Favicon">
  <defs>
    <linearGradient id="bg" x1="0" x2="1" y1="0" y2="1">
      <stop offset="0" stop-color="#0d47a1"/>
      <stop offset="1" stop-color="#1e88e5"/>
    </linearGradient>
  </defs>
  <rect x="2" y="2" width="60" height="60" rx="14" fill="url(#bg)"/>
  <path d="M32 15c-7.8 0-14.2 6.4-14.2 14.2 0 10.8 14.2 24.8 14.2 24.8s14.2-14 14.2-24.8C46.2 21.4 39.8 15 32 15z" fill="#ffffff"/>
  <circle cx="32" cy="29.2" r="4.2" fill="#1e88e5"/>
  <path d="M23 39.5c2.5-2.1 5.7-3.3 9-3.3s6.5 1.2 9 3.3" fill="none" stroke="#1e88e5" stroke-width="2.8" stroke-linecap="round"/>
  <path d="M20.2 34.2c3.4-2.8 7.5-4.3 11.8-4.3s8.4 1.5 11.8 4.3" fill="none" stroke="#1e88e5" stroke-width="2.8" stroke-linecap="round" opacity="0.88"/>
</svg>
